<svg xmlns="http://www.w3.org/2000/svg" viewbox="0 0 512 512" width="512" height="512"><defs></defs><g>
<rect fill="#ffffff" x="0" y="0" width="512" height="512"/>
<g>
	<g>
		<path d="M0.000000,140.111084C0.000000,140.111084 512.000000,140.111084 512.000000,140.111084 C512.000000,140.111084 512.000000,512.000000 512.000000,512.000000 C512.000000,512.000000 0.000000,512.000000 0.000000,512.000000 C0.000000,512.000000 0.000000,140.111084 0.000000,140.111084 Z" transform="" fill="#ffffff" stroke="#000000" stroke-width="2"/>
		<path d="M0.000000,0.000000C0.000000,0.000000 512.000000,0.000000 512.000000,0.000000 C512.000000,0.000000 512.000000,140.111084 512.000000,140.111084 C512.000000,140.111084 0.000000,140.111084 0.000000,140.111084 C0.000000,140.111084 0.000000,0.000000 0.000000,0.000000 Z" transform="" fill="#ff0000" stroke="#ff0000" stroke-width="2"/>
		<path d="M71.500000,320.835542Q53.140000,320.835542 38.785000,312.780542 Q24.430000,304.725542 16.195000,290.010542 Q7.960000,275.295542 7.960000,255.315542 Q7.960000,235.335542 16.285000,220.620542 Q24.610000,205.905542 39.145000,197.850542 Q53.680000,189.795542 72.220000,189.795542 Q81.850000,189.795542 90.580000,191.865542 Q99.310000,193.935542 105.880000,197.175542 Q104.080000,213.015542 104.080000,213.015542 Q97.330000,209.775542 89.230000,207.525542 Q81.130000,205.275542 72.040000,205.275542 Q57.190000,205.275542 47.110000,211.980542 Q37.030000,218.685542 31.855000,230.025542 Q26.680000,241.365542 26.680000,255.315542 Q26.680000,269.265542 31.765000,280.605542 Q36.850000,291.945542 46.885000,298.650542 Q56.920000,305.355542 71.680000,305.355542 Q81.040000,305.355542 89.005000,303.330542 Q96.970000,301.305542 104.080000,297.795542 Q105.880000,313.635542 105.880000,313.635542 Q99.130000,316.695542 90.670000,318.765542 Q82.210000,320.835542 71.500000,320.835542 Q71.500000,320.835542 71.500000,320.835542 ZM126.220000,318.315542C126.220000,318.315542 126.220000,192.315542 126.220000,192.315542 C126.220000,192.315542 143.320000,192.315542 143.320000,192.315542 C143.320000,192.315542 143.320000,244.335542 143.320000,244.335542 C143.320000,244.335542 207.400000,244.335542 207.400000,244.335542 C207.400000,244.335542 207.400000,192.315542 207.400000,192.315542 C207.400000,192.315542 224.500000,192.315542 224.500000,192.315542 C224.500000,192.315542 224.500000,318.315542 224.500000,318.315542 C224.500000,318.315542 207.400000,318.315542 207.400000,318.315542 C207.400000,318.315542 207.400000,260.535542 207.400000,260.535542 C207.400000,260.535542 143.320000,260.535542 143.320000,260.535542 C143.320000,260.535542 143.320000,318.315542 143.320000,318.315542 C143.320000,318.315542 126.220000,318.315542 126.220000,318.315542 C126.220000,318.315542 126.220000,318.315542 126.220000,318.315542 ZM253.300000,318.315542C253.300000,318.315542 253.300000,192.315542 253.300000,192.315542 C253.300000,192.315542 270.400000,192.315542 270.400000,192.315542 C270.400000,192.315542 270.400000,318.315542 270.400000,318.315542 C270.400000,318.315542 253.300000,318.315542 253.300000,318.315542 C253.300000,318.315542 253.300000,318.315542 253.300000,318.315542 ZM364.720000,318.315542C364.720000,318.315542 318.100000,251.535542 318.100000,251.535542 C318.100000,251.535542 364.720000,192.315542 364.720000,192.315542 C364.720000,192.315542 385.420000,192.315542 385.420000,192.315542 C385.420000,192.315542 337.540000,251.175542 337.540000,251.175542 C337.540000,251.175542 385.960000,318.315542 385.960000,318.315542 C385.960000,318.315542 364.720000,318.315542 364.720000,318.315542 C364.720000,318.315542 364.720000,318.315542 364.720000,318.315542 ZM299.200000,318.315542C299.200000,318.315542 299.200000,192.315542 299.200000,192.315542 C299.200000,192.315542 316.300000,192.315542 316.300000,192.315542 C316.300000,192.315542 316.300000,318.315542 316.300000,318.315542 C316.300000,318.315542 299.200000,318.315542 299.200000,318.315542 C299.200000,318.315542 299.200000,318.315542 299.200000,318.315542 ZM451.840000,320.835542Q434.110000,320.835542 422.545000,314.040542 Q410.980000,307.245542 405.310000,294.690542 Q399.640000,282.135542 399.640000,264.855542 Q399.640000,192.315542 399.640000,192.315542 C399.640000,192.315542 416.740000,192.315542 416.740000,192.315542 C416.740000,192.315542 416.740000,260.175542 416.740000,260.175542 Q416.740000,268.815542 418.090000,276.915542 Q419.440000,285.015542 423.085000,291.405542 Q426.730000,297.795542 433.705000,301.575542 Q440.680000,305.355542 451.840000,305.355542 Q463.090000,305.355542 470.020000,301.575542 Q476.950000,297.795542 480.595000,291.360542 Q484.240000,284.925542 485.590000,276.825542 Q486.940000,268.725542 486.940000,260.175542 Q486.940000,192.315542 486.940000,192.315542 C486.940000,192.315542 504.040000,192.315542 504.040000,192.315542 C504.040000,192.315542 504.040000,264.855542 504.040000,264.855542 Q504.040000,282.135542 498.370000,294.690542 Q492.700000,307.245542 481.135000,314.040542 Q469.570000,320.835542 451.840000,320.835542 Q451.840000,320.835542 451.840000,320.835542 ZM158.800000,462.315542C158.800000,462.315542 123.160000,336.315542 123.160000,336.315542 C123.160000,336.315542 141.160000,336.315542 141.160000,336.315542 C141.160000,336.315542 167.800000,440.175542 167.800000,440.175542 C167.800000,440.175542 198.580000,338.835542 198.580000,338.835542 C198.580000,338.835542 216.580000,338.835542 216.580000,338.835542 C216.580000,338.835542 247.360000,440.175542 247.360000,440.175542 C247.360000,440.175542 274.000000,336.315542 274.000000,336.315542 C274.000000,336.315542 292.000000,336.315542 292.000000,336.315542 C292.000000,336.315542 256.360000,462.315542 256.360000,462.315542 C256.360000,462.315542 238.180000,462.315542 238.180000,462.315542 C238.180000,462.315542 207.580000,360.975542 207.580000,360.975542 C207.580000,360.975542 176.980000,462.315542 176.980000,462.315542 C176.980000,462.315542 158.800000,462.315542 158.800000,462.315542 C158.800000,462.315542 158.800000,462.315542 158.800000,462.315542 ZM368.500000,428.295542C368.500000,428.295542 314.500000,428.295542 314.500000,428.295542 C314.500000,428.295542 314.500000,412.815542 314.500000,412.815542 C314.500000,412.815542 368.500000,412.815542 368.500000,412.815542 C368.500000,412.815542 368.500000,428.295542 368.500000,428.295542 C368.500000,428.295542 368.500000,428.295542 368.500000,428.295542 ZM338.980000,353.055542C338.980000,353.055542 344.020000,353.055542 344.020000,353.055542 C344.020000,353.055542 305.320000,462.315542 305.320000,462.315542 C305.320000,462.315542 287.320000,462.315542 287.320000,462.315542 C287.320000,462.315542 332.500000,336.315542 332.500000,336.315542 C332.500000,336.315542 350.500000,336.315542 350.500000,336.315542 C350.500000,336.315542 395.680000,462.315542 395.680000,462.315542 C395.680000,462.315542 377.680000,462.315542 377.680000,462.315542 C377.680000,462.315542 338.980000,353.055542 338.980000,353.055542 C338.980000,353.055542 338.980000,353.055542 338.980000,353.055542 Z" transform="" fill="#000000"/>
	</g>
</g></g></svg>